<svg width="30" height="32" viewBox="0 0 30 32" fill="none" xmlns="http://www.w3.org/2000/svg">
<path d="M12.4558 20.161C12.4558 20.161 4.22917 4.6347 3.18636 2.66495C2.14355 0.695205 0.695205 0.695205 0.579338 0.695205C0.46347 0.695205 0 0.695205 0 0.695205V0H11.0074V0.695205C11.0074 0.695205 11.7026 0.695205 9.55907 0.695205C7.41552 0.695205 8.11073 2.43322 8.11073 2.43322L16.9746 18.8864V28.5614C16.9746 28.5614 16.9746 31.28 20.5665 31.28V31.9794L8.80594 31.9215V31.2842C12.4558 31.2263 12.4558 28.5614 12.4558 28.5614V20.161Z" fill="white"/>
<path d="M19.0602 0H29.3724V0.695205C29.3724 0.695205 31.2263 0.695205 28.5613 0.695205C25.8964 0.695205 22.1886 8.11073 22.1886 8.11073H21.841C23.0576 5.15611 24.0425 0.695205 19.9292 0.695205H19.0602V0Z" fill="white"/>
</svg>
