<svg width="61" height="19" viewBox="0 0 61 19" fill="none" xmlns="http://www.w3.org/2000/svg">
<path d="M16.6788 11.4778C15.6869 11.4778 14.7575 11.0586 13.9131 10.3764L14.1187 9.4132L14.1277 9.37751C14.3107 8.35201 14.8916 6.63066 16.6788 6.63066C18.0191 6.63066 19.1093 7.71874 19.1093 9.05642C19.1048 10.3897 18.0147 11.4778 16.6788 11.4778V11.4778ZM16.6788 4.17374C14.3956 4.17374 12.6264 5.65418 11.9072 8.08885C10.808 6.44341 9.97694 4.46807 9.49001 2.80478H7.03267V9.18573C7.03267 10.4432 6.00503 11.4687 4.74508 11.4687C3.48512 11.4687 2.4576 10.4432 2.4576 9.18573V2.80478H2.80245e-05V9.18573C-0.00891208 11.7989 2.12229 13.9436 4.74043 13.9436C7.35869 13.9436 9.48989 11.7989 9.48989 9.18573V8.11562C9.96788 9.10995 10.5532 10.1132 11.2636 11.0051L9.75785 18.0682H12.2734L13.3635 12.9448C14.3196 13.5557 15.4187 13.9392 16.6787 13.9392C19.3728 13.9392 21.5665 11.7364 21.5665 9.04749C21.5665 6.36311 19.3728 4.17374 16.6787 4.17374H16.6788Z" fill="rgb(255, 255, 255)"/>
<path d="M29.0681 4.45022L30.6542 10.8312L32.4012 4.45022H34.4832L31.7981 13.6716H29.716L28.0674 7.25049L26.4231 13.6671H24.3412L21.6558 4.44582H23.7379L25.4848 10.8268L27.0709 4.44582H29.068V4.45034L29.0681 4.45022ZM39.4648 4.17374C36.7618 4.17374 34.5726 6.36311 34.5726 9.05641C34.5726 11.7542 36.7662 13.9392 39.4648 13.9392C42.168 13.9392 44.3616 11.7542 44.3616 9.05641C44.3616 6.3587 42.168 4.17374 39.4648 4.17374ZM39.4648 11.9326C37.8743 11.9326 36.5876 10.6483 36.5876 9.06094C36.5876 7.47343 37.8788 6.18929 39.4648 6.18929C41.0555 6.18929 42.3421 7.47343 42.3421 9.06094C42.3421 10.6439 41.0555 11.9326 39.4648 11.9326ZM50.3083 6.51479C48.91 6.51479 47.7796 7.64736 47.7796 9.03857V13.6671H45.6841V4.45022H47.7796V5.8682C47.7796 5.8682 48.6731 4.4457 50.5094 4.4457H51.1528V6.51479H50.3083V6.51479ZM57.3409 8.69975C58.8285 7.86138 59.8384 6.26948 59.8384 4.4457H57.7428C57.7428 5.98407 56.4919 7.23264 54.9505 7.23264H54.669V0H52.5737V13.667H54.669V9.32397H54.9193C55.1248 9.32397 55.3929 9.45781 55.5135 9.6227L58.489 13.6671H61L57.3409 8.69975V8.69975Z" fill="white"/>
</svg>
